<?xml version="1.0" encoding="UTF-8"?><svg id="a" xmlns="http://www.w3.org/2000/svg" width="32" height="32" xmlns:xlink="http://www.w3.org/1999/xlink" viewBox="0 0 32 32"><defs><linearGradient id="b" x1="15.45" y1="24.04" x2="15.45" y2="32" gradientUnits="userSpaceOnUse"><stop offset="0" stop-color="#39185f"/><stop offset="1" stop-color="#6b38a1"/></linearGradient></defs><path d="m6.36,32h19.27c2.67-2.54,4.33-6.12,4.33-10.1,0-7.72-6.25-13.97-13.97-13.97S2.03,14.19,2.03,21.9c0,3.98,1.67,7.55,4.33,10.1Z" fill="#ffd99a" opacity=".2"/><path d="m9.22,32h13.55c3.25-2.18,5.39-5.89,5.39-10.1,0-6.72-5.44-12.16-12.16-12.16S3.84,15.19,3.84,21.9c0,4.21,2.14,7.92,5.39,10.1Z" fill="#ffd99a" opacity=".2"/><path d="m14.32,32h3.36c4.86-.8,8.57-5.01,8.57-10.1,0-5.66-4.59-10.25-10.25-10.25s-10.25,4.59-10.25,10.25c0,5.09,3.71,9.3,8.57,10.1Z" fill="#ffd99a" opacity=".2"/><circle cx="16" cy="21.9" r="8.15" fill="#ffd99a"/><path d="m0,24.04s15.67-.49,30.91,7.96H0v-7.96Z" fill="url(#b)"/></svg>